<?xml version="1.0" encoding="UTF-8"?>
<svg id="Camada_2" data-name="Camada 2" xmlns="http://www.w3.org/2000/svg" viewBox="0 0 38.88 38.88">
  <defs>
    <style>
      .cls-1 {
        fill: #e5b347;
      }

      .cls-2 {
        fill: #1d1d1b;
      }
    </style>
  </defs>
  <g id="Camada_1-2" data-name="Camada 1">
    <g>
      <circle class="cls-1" cx="19.44" cy="19.44" r="19.44"/>
      <path class="cls-2" d="M19.86,23.84c.61,0,1.1-.18,1.46-.53.37-.35.55-.83.55-1.42h3.11l.04.07c.03,1.28-.45,2.35-1.45,3.22s-2.23,1.29-3.71,1.29c-1.89,0-3.35-.6-4.37-1.79s-1.54-2.73-1.54-4.61v-.35c0-1.87.51-3.4,1.53-4.61s2.47-1.8,4.37-1.8c1.56,0,2.82.45,3.78,1.34s1.42,2.06,1.39,3.52l-.02.07h-3.12c0-.66-.18-1.2-.54-1.63s-.86-.65-1.49-.65c-.91,0-1.54.35-1.92,1.05s-.56,1.61-.56,2.71v.35c0,1.13.19,2.04.56,2.73.37.69,1.01,1.04,1.93,1.04Z"/>
    </g>
  </g>
</svg>