<?xml version="1.0" encoding="UTF-8"?>
<svg id="Camada_2" data-name="Camada 2" xmlns="http://www.w3.org/2000/svg" viewBox="0 0 38.88 38.88">
  <defs>
    <style>
      .cls-1 {
        fill: #e5b347;
      }

      .cls-2 {
        fill: #1d1d1b;
      }
    </style>
  </defs>
  <g id="Camada_1-2" data-name="Camada 1">
    <g>
      <circle class="cls-1" cx="19.44" cy="19.44" r="19.44"/>
      <path class="cls-2" d="M25.42,22.28c0,1.89-.42,3.4-1.27,4.54s-2.06,1.7-3.66,1.7c-.73,0-1.38-.15-1.93-.46s-1.02-.76-1.4-1.35l-.26,1.57h-2.93V9.98h3.41v6.95c.37-.51.81-.9,1.32-1.17s1.1-.41,1.76-.41c1.61,0,2.84.61,3.68,1.82s1.27,2.83,1.27,4.86v.25ZM22.01,22.03c0-1.24-.18-2.23-.54-2.95-.36-.73-.98-1.09-1.86-1.09-.53,0-.98.11-1.35.34-.37.22-.66.54-.87.96v5.4c.21.39.5.68.87.88.37.2.83.31,1.37.31.88,0,1.5-.31,1.85-.94.35-.62.53-1.51.53-2.66v-.25Z"/>
    </g>
  </g>
</svg>