<?xml version="1.0" encoding="UTF-8"?>
<svg id="Camada_2" data-name="Camada 2" xmlns="http://www.w3.org/2000/svg" viewBox="0 0 38.88 38.88">
  <defs>
    <style>
      .cls-1 {
        fill: #e5b347;
      }

      .cls-2 {
        fill: #1d1d1b;
      }
    </style>
  </defs>
  <g id="Camada_1-2" data-name="Camada 1">
    <g>
      <circle class="cls-1" cx="19.44" cy="19.44" r="19.44"/>
      <path class="cls-2" d="M21.75,26.47c-.12-.29-.23-.59-.32-.91s-.15-.65-.19-.98c-.35.62-.81,1.13-1.39,1.54s-1.26.61-2.06.61c-1.33,0-2.35-.34-3.07-1.03s-1.08-1.62-1.08-2.79c0-1.24.48-2.21,1.44-2.89s2.35-1.03,4.19-1.03h1.91v-1.01c0-.61-.16-1.08-.48-1.42s-.79-.5-1.42-.5c-.55,0-.98.13-1.28.4s-.45.64-.45,1.12h-3.3s-.01-.08-.01-.08c-.05-1.07.41-1.99,1.39-2.77s2.28-1.17,3.88-1.17c1.52,0,2.75.38,3.69,1.15s1.42,1.87,1.42,3.29v5.24c0,.59.04,1.15.13,1.68s.23,1.04.43,1.56h-3.42ZM18.62,24.18c.6,0,1.14-.15,1.61-.45s.79-.64.95-1.03v-1.79h-1.91c-.73,0-1.28.18-1.65.54s-.56.8-.56,1.32c0,.42.14.76.42,1.02s.66.39,1.15.39Z"/>
    </g>
  </g>
</svg>