<?xml version="1.0" encoding="UTF-8"?>
<svg id="Camada_2" data-name="Camada 2" xmlns="http://www.w3.org/2000/svg" viewBox="0 0 38.88 38.88">
  <defs>
    <style>
      .cls-1 {
        fill: #e5b347;
      }

      .cls-2 {
        fill: #1d1d1b;
      }
    </style>
  </defs>
  <g id="Camada_1-2" data-name="Camada 1">
    <g>
      <circle class="cls-1" cx="19.44" cy="19.44" r="19.44"/>
      <path class="cls-2" d="M13.45,19.53c0-2,.44-3.61,1.31-4.84s2.09-1.84,3.66-1.84c.71,0,1.34.16,1.88.48s1,.78,1.38,1.37l.27-1.62h2.95v12.62c0,1.65-.54,2.92-1.62,3.83s-2.59,1.35-4.52,1.35c-.64,0-1.32-.09-2.04-.26s-1.38-.42-1.99-.72l.63-2.55c.52.25,1.06.44,1.6.57s1.13.19,1.78.19c.94,0,1.63-.2,2.07-.59s.66-1,.66-1.83v-1.15c-.38.48-.82.84-1.32,1.09s-1.09.38-1.75.38c-1.55,0-2.77-.57-3.64-1.72s-1.31-2.65-1.31-4.52v-.25ZM16.87,19.78c0,1.12.19,1.99.56,2.63.38.64.98.96,1.83.96.52,0,.97-.1,1.33-.29.36-.19.65-.47.87-.84v-5.54c-.22-.39-.51-.68-.87-.9-.36-.21-.8-.32-1.31-.32-.84,0-1.45.37-1.83,1.12s-.58,1.72-.58,2.92v.25Z"/>
    </g>
  </g>
</svg>