<?xml version="1.0" encoding="UTF-8"?>
<svg id="Camada_2" data-name="Camada 2" xmlns="http://www.w3.org/2000/svg" viewBox="0 0 38.88 38.88">
  <defs>
    <style>
      .cls-1 {
        fill: #e5b347;
      }

      .cls-2 {
        fill: #1d1d1b;
      }
    </style>
  </defs>
  <g id="Camada_1-2" data-name="Camada 1">
    <g>
      <circle class="cls-1" cx="19.44" cy="19.44" r="19.44"/>
      <path class="cls-2" d="M20.2,26.29c-1.83,0-3.29-.59-4.38-1.76s-1.64-2.66-1.64-4.46v-.47c0-1.88.52-3.43,1.55-4.65s2.42-1.82,4.17-1.82c1.71,0,3.04.52,3.98,1.55s1.42,2.43,1.42,4.18v1.86h-7.57l-.02.07c.06.83.34,1.52.84,2.05.5.54,1.17.81,2.02.81.76,0,1.39-.08,1.89-.23s1.05-.39,1.64-.72l.93,2.11c-.52.42-1.19.78-2.03,1.05-.84.28-1.77.42-2.79.42ZM19.89,15.77c-.63,0-1.13.24-1.5.73s-.59,1.12-.68,1.91l.04.06h4.2v-.3c0-.73-.17-1.31-.51-1.74s-.85-.65-1.54-.65Z"/>
    </g>
  </g>
</svg>