<?xml version="1.0" encoding="UTF-8"?>
<svg id="Camada_2" data-name="Camada 2" xmlns="http://www.w3.org/2000/svg" viewBox="0 0 38.88 38.88">
  <defs>
    <style>
      .cls-1 {
        fill: #e5b347;
      }

      .cls-2 {
        fill: #1d1d1b;
      }
    </style>
  </defs>
  <g id="Camada_1-2" data-name="Camada 1">
    <g>
      <circle class="cls-1" cx="19.44" cy="19.44" r="19.44"/>
      <path class="cls-2" d="M13.45,22.05c0-2,.43-3.61,1.29-4.84s2.08-1.84,3.65-1.84c.63,0,1.2.14,1.71.41s.95.66,1.34,1.17v-6.95h3.43v18.28h-2.94l-.28-1.55c-.4.59-.87,1.03-1.41,1.34s-1.17.46-1.87.46c-1.55,0-2.76-.57-3.63-1.71s-1.29-2.65-1.29-4.52v-.25ZM16.86,22.29c0,1.12.19,1.99.56,2.63s.98.96,1.83.96c.49,0,.92-.1,1.29-.3s.67-.49.9-.88v-5.44c-.23-.4-.53-.71-.9-.94s-.79-.34-1.27-.34c-.84,0-1.45.37-1.83,1.12-.39.75-.58,1.72-.58,2.92v.25Z"/>
    </g>
  </g>
</svg>