<?xml version="1.0" encoding="UTF-8"?>
<svg id="Camada_2" data-name="Camada 2" xmlns="http://www.w3.org/2000/svg" viewBox="0 0 38.87 38.87">
  <defs>
    <style>
      .cls-1 {
        fill: #e5b347;
      }
    </style>
  </defs>
  <g id="Camada_1-2" data-name="Camada 1">
    <g>
      <circle class="cls-1" cx="19.44" cy="19.44" r="19.44"/>
      <path d="M25.75,26.67h-10.99v-1.88l5.45-5.94c.79-.88,1.35-1.61,1.68-2.2.33-.59.5-1.18.5-1.77,0-.78-.22-1.41-.66-1.89-.44-.48-1.03-.72-1.77-.72-.88,0-1.57.27-2.06.81s-.73,1.28-.73,2.21h-2.73c0-1,.23-1.89.68-2.69.45-.8,1.1-1.42,1.94-1.86.84-.44,1.81-.66,2.91-.66,1.59,0,2.84.4,3.76,1.2.92.8,1.38,1.9,1.38,3.31,0,.82-.23,1.67-.69,2.57-.46.9-1.21,1.91-2.26,3.05l-4,4.28h7.59v2.18Z"/>
    </g>
  </g>
</svg>