<?xml version="1.0" encoding="UTF-8"?>
<svg id="Camada_2" data-name="Camada 2" xmlns="http://www.w3.org/2000/svg" viewBox="0 0 38.87 38.87">
  <defs>
    <style>
      .cls-1 {
        fill: #e5b347;
      }
    </style>
  </defs>
  <g id="Camada_1-2" data-name="Camada 1">
    <g>
      <circle class="cls-1" cx="19.44" cy="19.44" r="19.44"/>
      <path d="M17.92,17.24h1.66c.84,0,1.5-.22,1.99-.65.49-.43.74-1.04.74-1.85s-.2-1.38-.61-1.81c-.41-.43-1.03-.65-1.87-.65-.73,0-1.34.21-1.81.63-.47.42-.71.98-.71,1.66h-2.73c0-.84.22-1.6.67-2.29.45-.69,1.07-1.23,1.86-1.61.8-.39,1.69-.58,2.68-.58,1.63,0,2.91.41,3.85,1.23.93.82,1.4,1.96,1.4,3.42,0,.73-.23,1.42-.7,2.07-.47.65-1.07,1.14-1.81,1.47.9.31,1.58.79,2.05,1.45.47.66.7,1.44.7,2.36,0,1.47-.5,2.64-1.51,3.5-1.01.87-2.33,1.3-3.97,1.3s-2.86-.42-3.86-1.26-1.5-1.95-1.5-3.35h2.73c0,.72.24,1.3.72,1.75.48.45,1.13.67,1.95.67s1.51-.22,2-.67.73-1.1.73-1.95-.25-1.52-.76-1.99-1.27-.7-2.27-.7h-1.61v-2.16Z"/>
    </g>
  </g>
</svg>