<?xml version="1.0" encoding="UTF-8"?>
<svg id="Camada_2" data-name="Camada 2" xmlns="http://www.w3.org/2000/svg" viewBox="0 0 38.87 38.87">
  <defs>
    <style>
      .cls-1 {
        fill: #e5b347;
      }
    </style>
  </defs>
  <g id="Camada_1-2" data-name="Camada 1">
    <g>
      <circle class="cls-1" cx="19.44" cy="19.44" r="19.44"/>
      <path d="M15.49,18.56l.89-8.24h8.78v2.36h-6.51l-.45,3.91c.76-.43,1.61-.65,2.56-.65,1.56,0,2.77.5,3.63,1.49.86,1,1.3,2.34,1.3,4.02s-.48,2.99-1.44,3.97c-.96.98-2.27,1.48-3.94,1.48-1.5,0-2.74-.42-3.72-1.27-.98-.85-1.52-1.97-1.6-3.36h2.64c.1.79.39,1.4.85,1.82.46.42,1.07.63,1.82.63.84,0,1.49-.3,1.96-.9.47-.6.7-1.42.7-2.45s-.26-1.78-.77-2.36c-.52-.58-1.23-.87-2.13-.87-.49,0-.91.07-1.26.2-.34.13-.72.39-1.12.77l-2.18-.54Z"/>
    </g>
  </g>
</svg>