<?xml version="1.0" encoding="UTF-8"?>
<svg id="Camada_2" data-name="Camada 2" xmlns="http://www.w3.org/2000/svg" viewBox="0 0 38.87 38.87">
  <defs>
    <style>
      .cls-1 {
        fill: #e5b347;
      }
    </style>
  </defs>
  <g id="Camada_1-2" data-name="Camada 1">
    <g>
      <circle class="cls-1" cx="19.44" cy="19.44" r="19.44"/>
      <path d="M23.25,10.24v2.26h-.34c-1.53.02-2.75.44-3.66,1.26s-1.46,1.97-1.63,3.47c.88-.92,2-1.38,3.36-1.38,1.44,0,2.58.51,3.42,1.53.83,1.02,1.25,2.33,1.25,3.94s-.49,3.01-1.47,4.04c-.98,1.03-2.26,1.54-3.85,1.54s-2.96-.6-3.97-1.81c-1.01-1.21-1.52-2.79-1.52-4.74v-.93c0-2.87.7-5.11,2.09-6.74,1.4-1.62,3.4-2.44,6.03-2.44h.28ZM20.32,18.04c-.6,0-1.15.17-1.65.51-.5.34-.86.79-1.09,1.35v.83c0,1.21.25,2.18.76,2.89.51.71,1.17,1.07,1.98,1.07s1.45-.3,1.92-.91.71-1.4.71-2.39-.24-1.79-.72-2.41-1.12-.93-1.91-.93Z"/>
    </g>
  </g>
</svg>