<?xml version="1.0" encoding="UTF-8"?>
<svg id="Camada_2" data-name="Camada 2" xmlns="http://www.w3.org/2000/svg" viewBox="0 0 38.87 38.87">
  <defs>
    <style>
      .cls-1 {
        fill: #e5b347;
      }
    </style>
  </defs>
  <g id="Camada_1-2" data-name="Camada 1">
    <g>
      <circle class="cls-1" cx="19.44" cy="19.44" r="19.44"/>
      <path d="M25.06,14.63c0,.8-.21,1.51-.62,2.14-.41.62-.97,1.12-1.68,1.48.85.4,1.51.94,1.97,1.63.46.69.69,1.47.69,2.34,0,1.44-.49,2.58-1.46,3.42-.97.84-2.27,1.26-3.89,1.26s-2.93-.42-3.9-1.27c-.98-.85-1.47-1.98-1.47-3.41,0-.88.23-1.66.7-2.36s1.12-1.23,1.95-1.61c-.7-.36-1.26-.85-1.67-1.48-.41-.63-.61-1.34-.61-2.14,0-1.39.45-2.5,1.35-3.31s2.11-1.22,3.64-1.22,2.75.41,3.65,1.22,1.35,1.92,1.35,3.31ZM22.69,22.07c0-.81-.24-1.46-.72-1.96-.48-.5-1.12-.75-1.92-.75s-1.43.25-1.9.74c-.48.49-.71,1.15-.71,1.97s.23,1.44.7,1.92c.47.48,1.11.72,1.94.72s1.47-.23,1.93-.7c.46-.46.69-1.11.69-1.94ZM22.34,14.73c0-.71-.21-1.3-.62-1.76-.41-.46-.97-.69-1.66-.69s-1.25.22-1.65.66c-.4.44-.61,1.04-.61,1.79s.2,1.34.61,1.79c.41.44.96.66,1.66.66s1.25-.22,1.66-.66c.41-.44.61-1.04.61-1.79Z"/>
    </g>
  </g>
</svg>