<?xml version="1.0" encoding="UTF-8"?>
<svg id="Camada_2" data-name="Camada 2" xmlns="http://www.w3.org/2000/svg" viewBox="0 0 38.87 38.87">
  <defs>
    <style>
      .cls-1 {
        fill: #e5b347;
      }
    </style>
  </defs>
  <g id="Camada_1-2" data-name="Camada 1">
    <g>
      <circle class="cls-1" cx="19.44" cy="19.44" r="19.44"/>
      <path d="M22.5,19.83c-.91.97-1.98,1.45-3.2,1.45-1.44,0-2.58-.5-3.44-1.51-.85-1.01-1.28-2.33-1.28-3.97,0-1.08.22-2.06.65-2.93s1.05-1.56,1.85-2.04,1.73-.73,2.79-.73c1.65,0,2.95.61,3.92,1.84s1.45,2.87,1.45,4.93v.76c0,2.95-.67,5.2-2,6.75s-3.32,2.34-5.96,2.36h-.33v-2.26h.39c1.61-.02,2.85-.41,3.71-1.16.86-.75,1.34-1.91,1.45-3.49ZM19.87,19.14c.55,0,1.06-.16,1.54-.47s.85-.75,1.11-1.3v-1.07c0-1.21-.25-2.17-.74-2.91s-1.13-1.1-1.92-1.1-1.41.32-1.88.97c-.47.65-.7,1.47-.7,2.45s.24,1.85.71,2.48,1.1.94,1.89.94Z"/>
    </g>
  </g>
</svg>